<svg width="67" height="131" viewBox="0 0 67 131" fill="none" xmlns="http://www.w3.org/2000/svg">
<rect y="50" width="67" height="67" rx="12" fill="url(#paint0_linear_104_10)" fill-opacity="0.79"/>
<path d="M59.5448 109H40.0888V107.016L46.1048 102.28V85.384H20.8248V104.136L27.5448 106.44L26.2648 109H6.80875V107.016L12.8248 102.28V63.496L6.16875 61.256L7.44875 58.696H26.9048V60.68L20.8248 65.416V82.504H46.1048V63.496L39.4488 61.256L40.7288 58.696H60.1848V60.68L54.1048 65.416V104.136L60.8248 106.44L59.5448 109Z" fill="#003777"/>
<path d="M37.1834 92.04C37.1834 93.1067 37.2101 94.0933 37.2634 95C37.3434 95.88 37.4368 96.48 37.5434 96.8L29.8634 106.56L28.3434 105.36C29.8634 103.44 30.8768 101.813 31.3834 100.48C31.9168 99.1467 32.1834 97.5067 32.1834 95.56V67.72L27.2234 66.16L28.0234 64.56H40.9834V65.8L37.1834 68.76V92.04Z" fill="#545454" fill-opacity="0.59"/>
<defs>
<linearGradient id="paint0_linear_104_10" x1="33.5" y1="50" x2="33.5" y2="117" gradientUnits="userSpaceOnUse">
<stop offset="0.4" stop-color="#9ABEE8"/>
<stop offset="1" stop-color="#0366DA"/>
</linearGradient>
</defs>
</svg>
