<svg width="103" height="137" viewBox="0 0 103 137" fill="none" xmlns="http://www.w3.org/2000/svg">
<path d="M76.778 83H64.618V81.76L68.378 78.8V68.24H52.578V79.96L56.778 81.4L55.978 83H43.818V81.76L47.578 78.8V54.56L43.418 53.16L44.218 51.56H56.378V52.8L52.578 55.76V66.44H68.378V54.56L64.218 53.16L65.018 51.56H77.178V52.8L73.378 55.76V79.96L77.578 81.4L76.778 83Z" fill="url(#paint0_linear_105_11)"/>
<path d="M17.6834 64.04C17.6834 65.1067 17.7101 66.0933 17.7634 67C17.8434 67.88 17.9368 68.48 18.0434 68.8L10.3634 78.56L8.84344 77.36C10.3634 75.44 11.3768 73.8133 11.8834 72.48C12.4168 71.1467 12.6834 69.5067 12.6834 67.56V39.72L7.72344 38.16L8.52344 36.56H21.4834V37.8L17.6834 40.76V64.04Z" fill="url(#paint1_linear_105_11)"/>
<path d="M26.1882 59.344C26.8922 59.344 27.5215 59.5307 28.0762 59.904C28.6415 60.2667 29.0789 60.7627 29.3882 61.392C29.7082 62.0213 29.8682 62.7147 29.8682 63.472C29.8682 64.2933 29.6175 65.0667 29.1162 65.792C28.6149 66.5067 27.9855 67.0827 27.2282 67.52C26.4815 67.9467 25.7562 68.16 25.0522 68.16C24.3482 68.16 23.7135 67.9787 23.1482 67.616C22.5935 67.2427 22.1562 66.7413 21.8362 66.112C21.5269 65.4827 21.3722 64.7893 21.3722 64.032C21.3722 63.2107 21.6229 62.4427 22.1242 61.728C22.6255 61.0027 23.2495 60.4267 23.9962 60C24.7535 59.5627 25.4842 59.344 26.1882 59.344ZM25.2602 60.688C24.0549 60.688 23.4522 61.5467 23.4522 63.264C23.4522 64.2773 23.6709 65.1253 24.1082 65.808C24.5455 66.48 25.1695 66.816 25.9802 66.816C27.1855 66.816 27.7882 65.952 27.7882 64.224C27.7882 63.2213 27.5695 62.384 27.1322 61.712C26.6949 61.0293 26.0709 60.688 25.2602 60.688ZM38.5866 59.344C39.1626 59.344 39.6799 59.5307 40.1386 59.904C40.6079 60.2667 40.9706 60.7627 41.2266 61.392C41.4932 62.0213 41.6266 62.7147 41.6266 63.472C41.6266 64.2933 41.3759 65.0667 40.8746 65.792C40.3732 66.5067 39.7439 67.0827 38.9866 67.52C38.2399 67.9467 37.5146 68.16 36.8106 68.16C36.3732 68.16 35.9626 68.064 35.5786 67.872C35.2052 67.68 34.8746 67.408 34.5866 67.056L33.8986 68H33.2906V56.544L31.8666 55.552V55.056L34.6026 54.032H35.2106V61.168L37.3546 59.472C37.6959 59.3867 38.1066 59.344 38.5866 59.344ZM37.7386 66.816C38.9439 66.816 39.5466 65.9573 39.5466 64.24C39.5466 63.248 39.3919 62.4107 39.0826 61.728C38.7732 61.0453 38.3359 60.704 37.7706 60.704C37.3652 60.704 36.9706 60.784 36.5866 60.944C36.2026 61.104 35.7439 61.4187 35.2106 61.888V64.752C35.2106 65.3387 35.4292 65.8293 35.8666 66.224C36.3039 66.6187 36.9279 66.816 37.7386 66.816Z" fill="#003777"/>
<path d="M90.3296 82H87.2896V80.336L85.2576 82.032C85.0336 82.1173 84.7403 82.16 84.3776 82.16C83.6523 82.16 83.0763 81.9413 82.6496 81.504C82.223 81.056 82.0096 80.4533 82.0096 79.696V75.872L80.5856 75.04V74.544L83.3216 73.2H83.9296V78.896C83.9296 79.4827 84.0203 79.8933 84.2016 80.128C84.383 80.3627 84.7083 80.48 85.1776 80.48C85.5083 80.48 85.8336 80.4213 86.1536 80.304C86.4736 80.176 86.8523 79.9307 87.2896 79.568V75.872L85.8656 75.04V74.544L88.6016 73.2H89.2096V80.8L90.6496 81.36L90.3296 82ZM98.8131 73.344C99.3891 73.344 99.9065 73.5307 100.365 73.904C100.834 74.2667 101.197 74.7627 101.453 75.392C101.72 76.0213 101.853 76.7147 101.853 77.472C101.853 78.2933 101.602 79.0667 101.101 79.792C100.6 80.5067 99.9705 81.0827 99.2131 81.52C98.4665 81.9467 97.7411 82.16 97.0371 82.16C96.5998 82.16 96.1891 82.064 95.8051 81.872C95.4318 81.68 95.1011 81.408 94.8131 81.056L94.1251 82H93.5171V70.544L92.0931 69.552V69.056L94.8291 68.032H95.4371V75.168L97.5811 73.472C97.9225 73.3867 98.3331 73.344 98.8131 73.344ZM97.9651 80.816C99.1705 80.816 99.7731 79.9573 99.7731 78.24C99.7731 77.248 99.6185 76.4107 99.3091 75.728C98.9998 75.0453 98.5625 74.704 97.9971 74.704C97.5918 74.704 97.1971 74.784 96.8131 74.944C96.4291 75.104 95.9705 75.4187 95.4371 75.888V78.752C95.4371 79.3387 95.6558 79.8293 96.0931 80.224C96.5305 80.6187 97.1545 80.816 97.9651 80.816Z" fill="#003777"/>
<defs>
<linearGradient id="paint0_linear_105_11" x1="60.5" y1="15" x2="60.5" y2="137" gradientUnits="userSpaceOnUse">
<stop offset="0.324" stop-color="#A3C5EE"/>
<stop offset="1" stop-color="#00479A"/>
</linearGradient>
<linearGradient id="paint1_linear_105_11" x1="15" y1="0" x2="15" y2="103" gradientUnits="userSpaceOnUse">
<stop offset="0.404" stop-color="#A3C5EE"/>
<stop offset="1" stop-color="#00479A"/>
</linearGradient>
</defs>
</svg>
